<?xml version="1.0" encoding="UTF-8"?>
<svg width="135px" height="30px" viewBox="0 0 135 30" version="1.1" xmlns="http://www.w3.org/2000/svg" xmlns:xlink="http://www.w3.org/1999/xlink">
    <title>Group 2</title>
    <g id="Page-1" stroke="none" stroke-width="1" fill="none" fill-rule="evenodd">
        <g id="Artboard" transform="translate(-52.000000, -135.000000)" fill="#000000">
            <g id="Group-2" transform="translate(52.000000, 135.000000)">
                <path d="M36.3823834,23 C38.2145078,23 39.7412781,22.5282599 40.9626943,21.5847797 C42.1841105,20.6412995 43.0013817,19.3684913 43.4145078,17.7663551 L43.4145078,17.7663551 L39.346114,17.7663551 C38.8791019,19.1192701 37.8822107,19.7957276 36.3554404,19.7957276 C35.2777202,19.7957276 34.424525,19.4085447 33.7958549,18.6341789 C33.1671848,17.8598131 32.8528497,16.7694704 32.8528497,15.3631509 C32.8528497,13.9390298 33.1671848,12.8397864 33.7958549,12.0654206 C34.424525,11.2910547 35.2777202,10.9038718 36.3554404,10.9038718 C37.1098446,10.9038718 37.7430052,11.0863373 38.2549223,11.4512684 C38.7668394,11.8161994 39.1305699,12.3190921 39.346114,12.9599466 L39.346114,12.9599466 L43.4145078,12.9599466 C43.0013817,11.3044059 42.188601,10.0182466 40.9761658,9.10146862 C39.7637306,8.1846907 38.2324698,7.72630174 36.3823834,7.72630174 C34.9454231,7.72630174 33.6701209,8.04227859 32.5564767,8.67423231 C31.4428325,9.30618603 30.5716753,10.1962617 29.9430052,11.3444593 C29.3143351,12.4926569 29,13.8322207 29,15.3631509 C29,16.894081 29.3143351,18.2336449 29.9430052,19.3818425 C30.5716753,20.5300401 31.4428325,21.4201157 32.5564767,22.0520694 C33.6701209,22.6840231 34.9454231,23 36.3823834,23 Z M51.7813472,23 C53.2362694,23 54.5519862,22.6840231 55.7284974,22.0520694 C56.9050086,21.4201157 57.8390328,20.5255897 58.5305699,19.3684913 C59.2221071,18.211393 59.5678756,16.8762795 59.5678756,15.3631509 C59.5678756,13.8500223 59.2310881,12.5149088 58.557513,11.3578104 C57.8839378,10.2007121 56.9633851,9.30618603 55.7958549,8.67423231 C54.6283247,8.04227859 53.3260794,7.72630174 51.8891192,7.72630174 C50.4521589,7.72630174 49.1499136,8.04227859 47.9823834,8.67423231 C46.8148532,9.30618603 45.8943005,10.2007121 45.2207254,11.3578104 C44.5471503,12.5149088 44.2103627,13.8500223 44.2103627,15.3631509 C44.2103627,16.8762795 44.5381693,18.211393 45.1937824,19.3684913 C45.8493955,20.5255897 46.7519862,21.4201157 47.9015544,22.0520694 C49.0511226,22.6840231 50.3443869,23 51.7813472,23 Z M51.7813472,19.7423231 C50.7036269,19.7423231 49.8100173,19.3640409 49.1005181,18.6074766 C48.391019,17.8509123 48.0362694,16.7694704 48.0362694,15.3631509 C48.0362694,13.9568313 48.4,12.8753894 49.1274611,12.1188251 C49.8549223,11.3622608 50.757513,10.9839786 51.8352332,10.9839786 C52.9129534,10.9839786 53.824525,11.3622608 54.5699482,12.1188251 C55.3153713,12.8753894 55.6880829,13.9568313 55.6880829,15.3631509 C55.6880829,16.3066311 55.5084629,17.1076992 55.1492228,17.7663551 C54.7899827,18.4250111 54.3094991,18.9190031 53.707772,19.2483311 C53.1060449,19.5776591 52.4639033,19.7423231 51.7813472,19.7423231 Z M65.0787565,22.7596796 L65.0787565,14.588785 C65.0787565,13.4138852 65.37962,12.5104584 65.9813472,11.8785047 C66.5830743,11.246551 67.4048359,10.9305741 68.4466321,10.9305741 C69.4704663,10.9305741 70.2787565,11.246551 70.8715026,11.8785047 C71.4642487,12.5104584 71.7606218,13.4138852 71.7606218,14.588785 L71.7606218,14.588785 L71.7606218,22.7596796 L75.5326425,22.7596796 L75.5326425,14.0814419 C75.5326425,12.0876725 74.9848014,10.5344904 73.8891192,9.42189586 C72.793437,8.30930129 71.3564767,7.75300401 69.5782383,7.75300401 C68.6442142,7.75300401 67.7865285,7.93546951 67.0051813,8.30040053 C66.2238342,8.66533155 65.5816926,9.1682243 65.0787565,9.80907877 L65.0787565,9.80907877 L65.0787565,7.96662216 L61.3067358,7.96662216 L61.3067358,22.7596796 L65.0787565,22.7596796 Z M83.9264249,23 C85.0400691,23 86.0189983,22.7774811 86.8632124,22.3324433 C87.7074266,21.8874054 88.3630397,21.2999555 88.8300518,20.5700935 L88.8300518,20.5700935 L88.8300518,22.7596796 L92.6559585,22.7596796 L92.6559585,3 L88.8300518,3 L88.8300518,10.0226969 C88.3091537,9.32843792 87.6086356,8.77214063 86.7284974,8.35380507 C85.8483592,7.93546951 84.9233161,7.72630174 83.9533679,7.72630174 C82.6780656,7.72630174 81.5195164,8.03782822 80.4777202,8.66088117 C79.435924,9.28393413 78.6141623,10.1740098 78.0124352,11.3311081 C77.4107081,12.4882065 77.1098446,13.8144192 77.1098446,15.3097463 C77.1098446,16.8228749 77.4107081,18.1624388 78.0124352,19.3284379 C78.6141623,20.494437 79.435924,21.3978638 80.4777202,22.0387183 C81.5195164,22.6795728 82.6690846,23 83.9264249,23 Z M84.8963731,19.7156208 C84.2138169,19.7156208 83.5716753,19.5376057 82.9699482,19.1815754 C82.3682211,18.8255452 81.883247,18.3137517 81.5150259,17.6461949 C81.1468048,16.9786382 80.9626943,16.199822 80.9626943,15.3097463 C80.9626943,14.4196707 81.1468048,13.6497552 81.5150259,13 C81.883247,12.3502448 82.3637306,11.8562528 82.9564767,11.518024 C83.5492228,11.1797953 84.1958549,11.0106809 84.8963731,11.0106809 C85.5968912,11.0106809 86.2525043,11.1842457 86.8632124,11.5313752 C87.4739206,11.8785047 87.9588946,12.376947 88.3181347,13.0267023 C88.6773748,13.6764575 88.8569948,14.4552737 88.8569948,15.3631509 C88.8569948,16.271028 88.6773748,17.0498442 88.3181347,17.6995995 C87.9588946,18.3493547 87.4739206,18.8477971 86.8632124,19.1949266 C86.2525043,19.5420561 85.5968912,19.7156208 84.8963731,19.7156208 Z M101.157513,22.9465955 C102.073575,22.9465955 102.92228,22.76413 103.703627,22.3991989 C104.484974,22.0342679 105.118135,21.5313752 105.603109,20.8905207 L105.603109,20.8905207 L105.603109,22.7596796 L109.402073,22.7596796 L109.402073,7.96662216 L105.603109,7.96662216 L105.603109,16.1108144 C105.603109,17.2857143 105.306736,18.1891411 104.71399,18.8210948 C104.121244,19.4530485 103.303972,19.7690254 102.262176,19.7690254 C101.238342,19.7690254 100.430052,19.4530485 99.8373057,18.8210948 C99.2445596,18.1891411 98.9481865,17.2857143 98.9481865,16.1108144 L98.9481865,16.1108144 L98.9481865,7.96662216 L95.1761658,7.96662216 L95.1761658,16.6448598 C95.1761658,17.9621718 95.4321244,19.0970182 95.9440415,20.0493992 C96.4559585,21.0017802 97.1609672,21.7227414 98.0590674,22.212283 C98.9571675,22.7018247 99.9899827,22.9465955 101.157513,22.9465955 Z M118.496373,23 C120.328497,23 121.855268,22.5282599 123.076684,21.5847797 C124.2981,20.6412995 125.115371,19.3684913 125.528497,17.7663551 L125.528497,17.7663551 L121.460104,17.7663551 C120.993092,19.1192701 119.9962,19.7957276 118.46943,19.7957276 C117.39171,19.7957276 116.538515,19.4085447 115.909845,18.6341789 C115.281174,17.8598131 114.966839,16.7694704 114.966839,15.3631509 C114.966839,13.9390298 115.281174,12.8397864 115.909845,12.0654206 C116.538515,11.2910547 117.39171,10.9038718 118.46943,10.9038718 C119.223834,10.9038718 119.856995,11.0863373 120.368912,11.4512684 C120.880829,11.8161994 121.24456,12.3190921 121.460104,12.9599466 L121.460104,12.9599466 L125.528497,12.9599466 C125.115371,11.3044059 124.302591,10.0182466 123.090155,9.10146862 C121.87772,8.1846907 120.346459,7.72630174 118.496373,7.72630174 C117.059413,7.72630174 115.784111,8.04227859 114.670466,8.67423231 C113.556822,9.30618603 112.685665,10.1962617 112.056995,11.3444593 C111.428325,12.4926569 111.11399,13.8322207 111.11399,15.3631509 C111.11399,16.894081 111.428325,18.2336449 112.056995,19.3818425 C112.685665,20.5300401 113.556822,21.4201157 114.670466,22.0520694 C115.784111,22.6840231 117.059413,23 118.496373,23 Z M135,22.7596796 L135,19.6088117 L133.248705,19.6088117 C132.673921,19.6088117 132.265285,19.4975523 132.022798,19.2750334 C131.780311,19.0525145 131.659067,18.6920338 131.659067,18.1935915 L131.659067,18.1935915 L131.659067,11.0373832 L135,11.0373832 L135,7.96662216 L131.659067,7.96662216 L131.659067,4.30841121 L127.860104,4.30841121 L127.860104,7.96662216 L126.081865,7.96662216 L126.081865,11.0373832 L127.860104,11.0373832 L127.860104,18.1668892 C127.860104,21.2287494 129.449741,22.7596796 132.629016,22.7596796 L132.629016,22.7596796 L135,22.7596796 Z" id="conduct" fill-rule="nonzero"></path>
                <g id="Group-Copy">
                    <rect id="Rectangle" x="18" y="6" width="6" height="6"></rect>
                    <rect id="Rectangle-Copy-4" x="12" y="0" width="6" height="6"></rect>
                    <rect id="Rectangle-Copy-5" x="6" y="6" width="6" height="6"></rect>
                    <rect id="Rectangle-Copy-6" x="6" y="18" width="6" height="6"></rect>
                    <rect id="Rectangle-Copy-7" x="0" y="12" width="6" height="6"></rect>
                    <rect id="Rectangle-Copy-2" x="18" y="18" width="6" height="6"></rect>
                    <rect id="Rectangle-Copy-3" x="12" y="24" width="6" height="6"></rect>
                </g>
            </g>
        </g>
    </g>
</svg>